# xmcd CD database file generated by MAGIX-FreeDB-MP3_Maker_14 v2.0beta1
# 
# Track frame offsets:
#      150
#      15920
#      39923
#      59165
#      83245
#      104790
#      124748
#      140922
#      162792
#      183005
#      200497
#      220941
# 
# Disc length: 3196 seconds
# 
# Revision: 1 
# Processed by: cddbd v1.5.2PL0 Copyright (c) Steve Scherf et al.
# Submitted via: MAGIX-FreeDB-MP3_Maker_14 v2.0beta1
# 
DISCID=a90c7a0c
DTITLE=Red Hot Chilipeppers - The music of the red hot chili peppers
DYEAR=2004
DGENRE=Tribal
TTITLE0=Red Hot Chilipeppers - Road Trippin"
TTITLE1=Sugar and Spice - Californication
TTITLE2=Sugar and Spice - Otherside
TTITLE3=Sugar and Spice - Breaking the Girl
TTITLE4=Sugar and Spice - Give It Away
TTITLE5=Sugar and Spice - Under The Bridge
TTITLE6=Sugar and Spice - By The Way
TTITLE7=Sugar and Spice - Soul to Squeeze
TTITLE8=Sugar and Spice - Love Rollercoaster
TTITLE9=Sugar and Spice - The Zephyr Song
TTITLE10=Sugar and Spice - Can't stop
TTITLE11=Sugar and Spice - My Friends
EXTD=
EXTT0=
EXTT1=
EXTT2=
EXTT3=
EXTT4=
EXTT5=
EXTT6=
EXTT7=
EXTT8=
EXTT9=
EXTT10=
EXTT11=
PLAYORDER=
